<?xml version="1.0" encoding="UTF-8" standalone="no"?><svg xmlns="http://www.w3.org/2000/svg" xmlns:xlink="http://www.w3.org/1999/xlink" contentScriptType="application/ecmascript" contentStyleType="text/css" height="399px" preserveAspectRatio="none" style="width:1208px;height:399px;" version="1.1" viewBox="0 0 1208 399" width="1208px" zoomAndPan="magnify"><defs><filter height="300%" id="f10omdajiauzry" width="300%" x="-1" y="-1"><feGaussianBlur result="blurOut" stdDeviation="2.0"/><feColorMatrix in="blurOut" result="blurOut2" type="matrix" values="0 0 0 0 0 0 0 0 0 0 0 0 0 0 0 0 0 0 .4 0"/><feOffset dx="4.0" dy="4.0" in="blurOut2" result="blurOut3"/><feBlend in="SourceGraphic" in2="blurOut3" mode="normal"/></filter></defs><g><!--class Observer--><rect fill="#FEFECE" filter="url(#f10omdajiauzry)" height="60.8047" id="Observer" style="stroke: #A80036; stroke-width: 1.5;" width="236" x="6" y="60.5"/><ellipse cx="92.75" cy="76.5" fill="#B4A7E5" rx="11" ry="11" style="stroke: #A80036; stroke-width: 1.0;"/><path d="M93.7031,73.2813 L93.7031,79.7969 L95.4219,79.7969 C95.875,79.7969 96.0156,79.8281 96.1875,79.9531 C96.4219,80.125 96.5313,80.375 96.5313,80.6563 C96.5313,81.2188 96.1719,81.5 95.4219,81.5 L90.2813,81.5 C89.875,81.5 89.6719,81.4531 89.5156,81.3281 C89.2969,81.1719 89.1563,80.9063 89.1563,80.6563 C89.1563,80.3594 89.3125,80.0781 89.5625,79.9219 C89.7188,79.8125 89.8438,79.7969 90.2813,79.7969 L92,79.7969 L92,73.2813 L90.2813,73.2813 C89.8594,73.2813 89.6719,73.25 89.5156,73.1406 C89.2969,72.9688 89.1563,72.7188 89.1563,72.4375 C89.1563,72.1563 89.3125,71.8594 89.5625,71.7031 C89.7188,71.6094 89.8438,71.5938 90.2813,71.5938 L95.4219,71.5938 C95.875,71.5938 96.0156,71.625 96.1875,71.7344 C96.4219,71.9063 96.5313,72.1719 96.5313,72.4375 C96.5313,72.7344 96.3906,73.0156 96.125,73.1719 C96,73.25 95.8125,73.2813 95.4219,73.2813 Z "/><text fill="#000000" font-family="sans-serif" font-size="12" font-style="italic" lengthAdjust="spacingAndGlyphs" textLength="54" x="113.25" y="80.6543">Observer</text><line style="stroke: #A80036; stroke-width: 1.5;" x1="7" x2="241" y1="92.5" y2="92.5"/><line style="stroke: #A80036; stroke-width: 1.5;" x1="7" x2="241" y1="100.5" y2="100.5"/><text fill="#000000" font-family="sans-serif" font-size="11" lengthAdjust="spacingAndGlyphs" textLength="224" x="12" y="114.7104">notify ((String command,Object source)</text><!--class Observevable--><rect fill="#FEFECE" filter="url(#f10omdajiauzry)" height="86.4141" id="Observevable" style="stroke: #A80036; stroke-width: 1.5;" width="305" x="852.5" y="48"/><ellipse cx="959.75" cy="64" fill="#B4A7E5" rx="11" ry="11" style="stroke: #A80036; stroke-width: 1.0;"/><path d="M960.7031,60.7813 L960.7031,67.2969 L962.4219,67.2969 C962.875,67.2969 963.0156,67.3281 963.1875,67.4531 C963.4219,67.625 963.5313,67.875 963.5313,68.1563 C963.5313,68.7188 963.1719,69 962.4219,69 L957.2813,69 C956.875,69 956.6719,68.9531 956.5156,68.8281 C956.2969,68.6719 956.1563,68.4063 956.1563,68.1563 C956.1563,67.8594 956.3125,67.5781 956.5625,67.4219 C956.7188,67.3125 956.8438,67.2969 957.2813,67.2969 L959,67.2969 L959,60.7813 L957.2813,60.7813 C956.8594,60.7813 956.6719,60.75 956.5156,60.6406 C956.2969,60.4688 956.1563,60.2188 956.1563,59.9375 C956.1563,59.6563 956.3125,59.3594 956.5625,59.2031 C956.7188,59.1094 956.8438,59.0938 957.2813,59.0938 L962.4219,59.0938 C962.875,59.0938 963.0156,59.125 963.1875,59.2344 C963.4219,59.4063 963.5313,59.6719 963.5313,59.9375 C963.5313,60.2344 963.3906,60.5156 963.125,60.6719 C963,60.75 962.8125,60.7813 962.4219,60.7813 Z "/><text fill="#000000" font-family="sans-serif" font-size="12" font-style="italic" lengthAdjust="spacingAndGlyphs" textLength="82" x="980.25" y="68.1543">Observevable</text><line style="stroke: #A80036; stroke-width: 1.5;" x1="853.5" x2="1156.5" y1="80" y2="80"/><line style="stroke: #A80036; stroke-width: 1.5;" x1="853.5" x2="1156.5" y1="88" y2="88"/><text fill="#000000" font-family="sans-serif" font-size="11" lengthAdjust="spacingAndGlyphs" textLength="293" x="858.5" y="102.2104">notifyAllObsesrver(String command,Object source);</text><text fill="#000000" font-family="sans-serif" font-size="11" lengthAdjust="spacingAndGlyphs" textLength="194" x="858.5" y="115.0151">addObserver(Observer observer);</text><text fill="#000000" font-family="sans-serif" font-size="11" lengthAdjust="spacingAndGlyphs" textLength="216" x="858.5" y="127.8198">removeObserver(Observer observer);</text><!--class SimpleStock--><rect fill="#FEFECE" filter="url(#f10omdajiauzry)" height="60.8047" id="SimpleStock" style="stroke: #A80036; stroke-width: 1.5;" width="259" x="277.5" y="60.5"/><ellipse cx="364.75" cy="76.5" fill="#ADD1B2" rx="11" ry="11" style="stroke: #A80036; stroke-width: 1.0;"/><path d="M367.0938,72.1719 L367.2656,72.25 C367.4844,71.9375 367.6875,71.8438 367.9844,71.8438 C368.2813,71.8438 368.5625,71.9844 368.7188,72.25 C368.8125,72.4063 368.8281,72.5313 368.8281,72.9688 L368.8281,74.3906 C368.8281,74.8125 368.7969,75 368.6875,75.1563 C368.5156,75.375 368.25,75.5156 367.9844,75.5156 C367.7656,75.5156 367.5313,75.4063 367.3906,75.2656 C367.25,75.1406 367.2188,75.0156 367.1563,74.6094 C367.0625,74.2031 366.8906,73.9844 366.4063,73.7031 C365.9375,73.4531 365.3281,73.2969 364.75,73.2969 C363.0156,73.2969 361.7656,74.6094 361.7656,76.3906 L361.7656,77.4844 C361.7656,79.1875 363.0625,80.2813 365.1094,80.2813 C365.875,80.2813 366.5625,80.1563 366.9844,79.8906 C367.1719,79.7969 367.1719,79.7969 367.625,79.3125 C367.8125,79.125 368.0156,79.0469 368.2344,79.0469 C368.7031,79.0469 369.0938,79.4375 369.0938,79.8906 C369.0938,80.2813 368.7656,80.7344 368.1875,81.1406 C367.4375,81.6875 366.2813,81.9844 365.0625,81.9844 C362.1719,81.9844 360.0625,80.0938 360.0625,77.5156 L360.0625,76.3906 C360.0625,73.6719 362.0625,71.5938 364.6875,71.5938 C365.5625,71.5938 366.1563,71.7344 367.0938,72.1719 Z "/><text fill="#000000" font-family="sans-serif" font-size="12" lengthAdjust="spacingAndGlyphs" textLength="76" x="385.25" y="80.6543">SimpleStock</text><line style="stroke: #A80036; stroke-width: 1.5;" x1="278.5" x2="535.5" y1="92.5" y2="92.5"/><line style="stroke: #A80036; stroke-width: 1.5;" x1="278.5" x2="535.5" y1="100.5" y2="100.5"/><text fill="#000000" font-family="sans-serif" font-size="11" lengthAdjust="spacingAndGlyphs" textLength="247" x="283.5" y="114.7104">void update(Map&lt;String, Double&gt; stocklist)</text><!--class StockMarket--><rect fill="#FEFECE" filter="url(#f10omdajiauzry)" height="60.8047" id="StockMarket" style="stroke: #A80036; stroke-width: 1.5;" width="288" x="861" y="328"/><ellipse cx="961.75" cy="344" fill="#ADD1B2" rx="11" ry="11" style="stroke: #A80036; stroke-width: 1.0;"/><path d="M964.0938,339.6719 L964.2656,339.75 C964.4844,339.4375 964.6875,339.3438 964.9844,339.3438 C965.2813,339.3438 965.5625,339.4844 965.7188,339.75 C965.8125,339.9063 965.8281,340.0313 965.8281,340.4688 L965.8281,341.8906 C965.8281,342.3125 965.7969,342.5 965.6875,342.6563 C965.5156,342.875 965.25,343.0156 964.9844,343.0156 C964.7656,343.0156 964.5313,342.9063 964.3906,342.7656 C964.25,342.6406 964.2188,342.5156 964.1563,342.1094 C964.0625,341.7031 963.8906,341.4844 963.4063,341.2031 C962.9375,340.9531 962.3281,340.7969 961.75,340.7969 C960.0156,340.7969 958.7656,342.1094 958.7656,343.8906 L958.7656,344.9844 C958.7656,346.6875 960.0625,347.7813 962.1094,347.7813 C962.875,347.7813 963.5625,347.6563 963.9844,347.3906 C964.1719,347.2969 964.1719,347.2969 964.625,346.8125 C964.8125,346.625 965.0156,346.5469 965.2344,346.5469 C965.7031,346.5469 966.0938,346.9375 966.0938,347.3906 C966.0938,347.7813 965.7656,348.2344 965.1875,348.6406 C964.4375,349.1875 963.2813,349.4844 962.0625,349.4844 C959.1719,349.4844 957.0625,347.5938 957.0625,345.0156 L957.0625,343.8906 C957.0625,341.1719 959.0625,339.0938 961.6875,339.0938 C962.5625,339.0938 963.1563,339.2344 964.0938,339.6719 Z "/><text fill="#000000" font-family="sans-serif" font-size="12" lengthAdjust="spacingAndGlyphs" textLength="78" x="982.25" y="348.1543">StockMarket</text><line style="stroke: #A80036; stroke-width: 1.5;" x1="862" x2="1148" y1="360" y2="360"/><line style="stroke: #A80036; stroke-width: 1.5;" x1="862" x2="1148" y1="368" y2="368"/><text fill="#000000" font-family="sans-serif" font-size="11" lengthAdjust="spacingAndGlyphs" textLength="276" x="867" y="382.2104">void addStock(String stockSymbol, Double price)</text><!--class AbstractMarket--><rect fill="#FEFECE" filter="url(#f10omdajiauzry)" height="73.6094" id="AbstractMarket" style="stroke: #A80036; stroke-width: 1.5;" width="384" x="813" y="194"/><ellipse cx="953.25" cy="210" fill="#A9DCDF" rx="11" ry="11" style="stroke: #A80036; stroke-width: 1.0;"/><path d="M954.8281,211.8125 L950.7813,211.8125 L950.3906,212.7969 L950.7813,212.7969 C951.2344,212.7969 951.375,212.8281 951.5469,212.9531 C951.7656,213.125 951.8906,213.375 951.8906,213.6563 C951.8906,213.9375 951.75,214.2344 951.4844,214.375 C951.3594,214.4688 951.1406,214.5 950.7813,214.5 L948.5156,214.5 C947.7656,214.5 947.3906,214.2188 947.3906,213.6563 C947.3906,213.3594 947.5469,213.0781 947.7969,212.9219 C947.9531,212.8125 948.1094,212.7969 948.5313,212.7969 L951.1719,206.2813 L950.0938,206.2813 C949.6563,206.2813 949.4844,206.25 949.3125,206.1406 C949.0938,205.9688 948.9531,205.7188 948.9531,205.4375 C948.9531,205.1563 949.1094,204.875 949.3594,204.7031 C949.5156,204.6094 949.6406,204.5938 950.0938,204.5938 L953.7656,204.5938 L957.1563,212.7969 C957.625,212.7969 957.7813,212.8281 957.9531,212.9688 C958.1719,213.125 958.3125,213.375 958.3125,213.6563 C958.3125,213.9375 958.1563,214.2344 957.9063,214.375 C957.7656,214.4688 957.5469,214.5 957.1875,214.5 L954.8281,214.5 C954.4063,214.5 954.2031,214.4531 954.0625,214.3281 C953.8438,214.1719 953.7031,213.9219 953.7031,213.6563 C953.7031,213.3594 953.8594,213.0781 954.1094,212.9219 C954.2656,212.8125 954.375,212.7969 954.8281,212.7969 L955.2188,212.7969 Z M954.125,210.1094 L952.7969,206.8438 L951.4531,210.1094 Z "/><text fill="#000000" font-family="sans-serif" font-size="12" font-style="italic" lengthAdjust="spacingAndGlyphs" textLength="95" x="973.75" y="214.1543">AbstractMarket</text><line style="stroke: #A80036; stroke-width: 1.5;" x1="814" x2="1196" y1="226" y2="226"/><line style="stroke: #A80036; stroke-width: 1.5;" x1="814" x2="1196" y1="234" y2="234"/><text fill="#000000" font-family="sans-serif" font-size="11" lengthAdjust="spacingAndGlyphs" textLength="372" x="819" y="248.2104">Map&lt;String,Double&gt; stocklist = new HashMap&lt;String,Double&gt;();</text><text fill="#000000" font-family="sans-serif" font-size="11" lengthAdjust="spacingAndGlyphs" textLength="200" x="819" y="261.0151">Map&lt;String, Double&gt; getStocklist()</text><!--class StockBuyer--><rect fill="#FEFECE" filter="url(#f10omdajiauzry)" height="48" id="StockBuyer" style="stroke: #A80036; stroke-width: 1.5;" width="102" x="715" y="67"/><ellipse cx="730" cy="83" fill="#ADD1B2" rx="11" ry="11" style="stroke: #A80036; stroke-width: 1.0;"/><path d="M732.3438,78.6719 L732.5156,78.75 C732.7344,78.4375 732.9375,78.3438 733.2344,78.3438 C733.5313,78.3438 733.8125,78.4844 733.9688,78.75 C734.0625,78.9063 734.0781,79.0313 734.0781,79.4688 L734.0781,80.8906 C734.0781,81.3125 734.0469,81.5 733.9375,81.6563 C733.7656,81.875 733.5,82.0156 733.2344,82.0156 C733.0156,82.0156 732.7813,81.9063 732.6406,81.7656 C732.5,81.6406 732.4688,81.5156 732.4063,81.1094 C732.3125,80.7031 732.1406,80.4844 731.6563,80.2031 C731.1875,79.9531 730.5781,79.7969 730,79.7969 C728.2656,79.7969 727.0156,81.1094 727.0156,82.8906 L727.0156,83.9844 C727.0156,85.6875 728.3125,86.7813 730.3594,86.7813 C731.125,86.7813 731.8125,86.6563 732.2344,86.3906 C732.4219,86.2969 732.4219,86.2969 732.875,85.8125 C733.0625,85.625 733.2656,85.5469 733.4844,85.5469 C733.9531,85.5469 734.3438,85.9375 734.3438,86.3906 C734.3438,86.7813 734.0156,87.2344 733.4375,87.6406 C732.6875,88.1875 731.5313,88.4844 730.3125,88.4844 C727.4219,88.4844 725.3125,86.5938 725.3125,84.0156 L725.3125,82.8906 C725.3125,80.1719 727.3125,78.0938 729.9375,78.0938 C730.8125,78.0938 731.4063,78.2344 732.3438,78.6719 Z "/><text fill="#000000" font-family="sans-serif" font-size="12" lengthAdjust="spacingAndGlyphs" textLength="70" x="744" y="87.1543">StockBuyer</text><line style="stroke: #A80036; stroke-width: 1.5;" x1="716" x2="816" y1="99" y2="99"/><line style="stroke: #A80036; stroke-width: 1.5;" x1="716" x2="816" y1="107" y2="107"/><!--class StockViewer--><rect fill="#FEFECE" filter="url(#f10omdajiauzry)" height="48" id="StockViewer" style="stroke: #A80036; stroke-width: 1.5;" width="108" x="572" y="67"/><ellipse cx="587" cy="83" fill="#ADD1B2" rx="11" ry="11" style="stroke: #A80036; stroke-width: 1.0;"/><path d="M589.3438,78.6719 L589.5156,78.75 C589.7344,78.4375 589.9375,78.3438 590.2344,78.3438 C590.5313,78.3438 590.8125,78.4844 590.9688,78.75 C591.0625,78.9063 591.0781,79.0313 591.0781,79.4688 L591.0781,80.8906 C591.0781,81.3125 591.0469,81.5 590.9375,81.6563 C590.7656,81.875 590.5,82.0156 590.2344,82.0156 C590.0156,82.0156 589.7813,81.9063 589.6406,81.7656 C589.5,81.6406 589.4688,81.5156 589.4063,81.1094 C589.3125,80.7031 589.1406,80.4844 588.6563,80.2031 C588.1875,79.9531 587.5781,79.7969 587,79.7969 C585.2656,79.7969 584.0156,81.1094 584.0156,82.8906 L584.0156,83.9844 C584.0156,85.6875 585.3125,86.7813 587.3594,86.7813 C588.125,86.7813 588.8125,86.6563 589.2344,86.3906 C589.4219,86.2969 589.4219,86.2969 589.875,85.8125 C590.0625,85.625 590.2656,85.5469 590.4844,85.5469 C590.9531,85.5469 591.3438,85.9375 591.3438,86.3906 C591.3438,86.7813 591.0156,87.2344 590.4375,87.6406 C589.6875,88.1875 588.5313,88.4844 587.3125,88.4844 C584.4219,88.4844 582.3125,86.5938 582.3125,84.0156 L582.3125,82.8906 C582.3125,80.1719 584.3125,78.0938 586.9375,78.0938 C587.8125,78.0938 588.4063,78.2344 589.3438,78.6719 Z "/><text fill="#000000" font-family="sans-serif" font-size="12" lengthAdjust="spacingAndGlyphs" textLength="76" x="601" y="87.1543">StockViewer</text><line style="stroke: #A80036; stroke-width: 1.5;" x1="573" x2="679" y1="99" y2="99"/><line style="stroke: #A80036; stroke-width: 1.5;" x1="573" x2="679" y1="107" y2="107"/><!--link Observevable to AbstractMarket--><path d="M1005,154.623 C1005,168.004 1005,181.707 1005,193.697 " fill="none" id="Observevable-AbstractMarket" style="stroke: #A80036; stroke-width: 1.0;"/><polygon fill="none" points="998,154.154,1005,134.154,1012,154.154,998,154.154" style="stroke: #A80036; stroke-width: 1.0;"/><!--link Observer to SimpleStock--><path d="M262.225,91 C267.302,91 272.379,91 277.456,91 " fill="none" id="Observer-SimpleStock" style="stroke: #A80036; stroke-width: 1.0;"/><polygon fill="none" points="262.009,98,242.009,91,262.009,84,262.009,98" style="stroke: #A80036; stroke-width: 1.0;"/><!--link SimpleStock to StockBuyer--><path d="M473.224,50.719 C529.283,21.953 611.319,-7.516 680.5,18 C706.87,27.726 730.626,49.608 746.366,66.893 " fill="none" id="SimpleStock-StockBuyer" style="stroke: #A80036; stroke-width: 1.0;"/><polygon fill="none" points="476.196,57.069,455.265,60.368,469.57,44.736,476.196,57.069" style="stroke: #A80036; stroke-width: 1.0;"/><!--link SimpleStock to StockViewer--><path d="M556.718,91 C561.77,91 566.822,91 571.873,91 " fill="none" id="SimpleStock-StockViewer" style="stroke: #A80036; stroke-width: 1.0;"/><polygon fill="none" points="556.604,98,536.604,91,556.603,84,556.604,98" style="stroke: #A80036; stroke-width: 1.0;"/><!--link AbstractMarket to StockMarket--><path d="M1005,288.73 C1005,302.1531 1005,315.9467 1005,327.624 " fill="none" id="AbstractMarket-StockMarket" style="stroke: #A80036; stroke-width: 1.0;"/><polygon fill="none" points="998,288.3,1005,268.3,1012,288.3,998,288.3" style="stroke: #A80036; stroke-width: 1.0;"/><!--
@startuml
interface Observer{ 
    notify ((String command,Object source)
}
interface Observevable{ 
  notifyAllObsesrver(String command,Object source);
  addObserver(Observer observer);
  removeObserver(Observer observer);
}

 class SimpleStock {
  void update(Map<String, Double> stocklist)
}
 class StockMarket {
  void addStock(String stockSymbol, Double price)
}

abstract AbstractMarket {
Map<String,Double> stocklist = new HashMap<String,Double>();
 Map<String, Double> getStocklist()
}
Observevable <|- - AbstractMarket
Observer <|-  SimpleStock
SimpleStock <|-  StockBuyer
SimpleStock <|-  StockViewer
AbstractMarket <|- - StockMarket
@enduml

PlantUML version 1.2019.07(Mon Jun 24 19:59:20 UTC 2019)
(GPL source distribution)
Java Runtime: Java(TM) SE Runtime Environment
JVM: Java HotSpot(TM) 64-Bit Server VM
Java Version: 1.7.0_25-b15
Operating System: Linux
Default Encoding: UTF-8
Language: en
Country: US
--></g></svg>